<?xml version="1.0" encoding="UTF-8"?>
<svg id="Layer_1" data-name="Layer 1" xmlns="http://www.w3.org/2000/svg" viewBox="0 0 1900 400">
  <defs>
    <style>
      .cls-1 {
        fill: none;
      }

      .cls-2 {
        fill: #e95420;
      }

      .cls-3 {
        fill: #fff;
      }
    </style>
  </defs>
  <g>
    <rect class="cls-2" width="252.43" height="400"/>
    <rect class="cls-1" x="30.05" y="168.29" width="192.33" height="192.33"/>
    <g>
    <path class="cls-3"
          d="m184.43,298.32c-4.33,0-7.88,3.36-8.18,7.62l-34.39,8.16c-.91-1.76-2.3-3.23-4.01-4.21l11.6-40.07c.32.02.63.05.96.05,6.73,0,12.19-5.46,12.19-12.19s-5.46-12.19-12.19-12.19-12.19,5.46-12.19,12.19c0,4.68,2.64,8.74,6.51,10.78l-11.6,40.07c-.14,0-.28-.02-.42-.02-1.41,0-2.74.28-3.97.79l-25.57-34.61c.99-1.36,1.58-3.02,1.58-4.83,0-4.53-3.67-8.21-8.21-8.21s-8.21,3.67-8.21,8.21,3.67,8.21,8.21,8.21c.94,0,1.83-.16,2.67-.45l25.57,34.61c-.61.73-1.12,1.55-1.51,2.44l-34.97-6.11c0-.21.03-.41.03-.62,0-8.62-6.99-15.61-15.61-15.61-.06,0-.13,0-.19,0-.06,0-.13,0-.19,0-8.62,0-15.61,6.99-15.61,15.61s6.99,15.61,15.61,15.61c.06,0,.13,0,.19,0,.06,0,.13,0,.19,0,6.71,0,12.41-4.24,14.62-10.17l35.1,6.14c.36,5.36,4.81,9.59,10.26,9.59s10.25-4.56,10.29-10.21l34.39-8.16c1.43,2.4,4.05,4.01,7.04,4.01,4.53,0,8.21-3.67,8.21-8.21s-3.67-8.21-8.21-8.21Z" />
    <path class="cls-3"
          d="m197.13,265.61c0-.19,0-.37,0-.56,0-27.01-21.97-48.98-48.98-48.98-15.58,0-29.89,7.2-39.1,19.47-4-1.47-8.25-2.24-12.51-2.24-19.04,0-34.68,14.78-36.07,33.47-17.79,5.29-30.29,21.79-30.29,40.76,0,23.46,19.08,42.54,42.54,42.54,8.48,0,29.3.02,50.68.04h1.79c22.52.03,45.31.05,54.65.05,24.29,0,44.04-19.76,44.04-44.04,0-17.88-10.59-33.68-26.75-40.52Zm-17.29,74.09c-9.33,0-32.12-.02-54.63-.05h-1.79c-21.39-.02-42.22-.05-50.69-.05-17.68,0-32.07-14.38-32.07-32.07,0-15.4,10.92-28.64,25.96-31.49l4.46-.84-.21-4.54c-.02-.4-.03-.8-.03-1.19,0-14.17,11.53-25.69,25.69-25.69,4.14,0,8.27,1.02,11.94,2.95l4.33,2.27,2.56-4.16c7.06-11.45,19.31-18.29,32.78-18.29,21.23,0,38.5,17.27,38.5,38.51,0,1.21-.06,2.43-.17,3.63l-.4,4.21,4.02,1.28c13.93,4.44,23.29,17.28,23.29,31.96,0,18.51-15.06,33.57-33.57,33.57Z" />
    </g>
  </g>
</svg>