<?xml version="1.0" encoding="UTF-8"?>
<svg id="Layer_1" xmlns="http://www.w3.org/2000/svg" viewBox="0 0 157 34">
    <defs>
        <style>.cls-1{fill:#fff;}.cls-2{fill:#e95420;}.cls-3{fill:none;}</style>
    </defs>
    <g>
        <path class="cls-1"
              d="M32.53,29.47c-1.24,0-2.36-.29-3.35-.88-1-.58-1.79-1.44-2.37-2.56-.58-1.12-.88-2.5-.88-4.12,0-1.21,.18-2.29,.54-3.23,.36-.94,.86-1.73,1.48-2.37s1.34-1.12,2.14-1.45c.8-.33,1.64-.49,2.52-.49,.72,0,1.36,.06,1.9,.18,.54,.12,1,.25,1.36,.4,.36,.15,.63,.28,.79,.39l-.46,1.23c-.35-.21-.79-.41-1.34-.62-.54-.2-1.2-.3-1.98-.3-1.2,0-2.2,.26-3.01,.79s-1.42,1.27-1.83,2.21-.62,2.04-.62,3.28,.2,2.37,.61,3.31c.4,.94,1,1.67,1.78,2.18,.78,.51,1.73,.77,2.84,.77,.92,0,1.69-.09,2.31-.26,.62-.17,1.09-.35,1.41-.53l.4,1.21c-.2,.12-.66,.3-1.4,.52s-1.68,.33-2.84,.33Z" />
        <path class="cls-1"
              d="M42.46,29.39c-.75,0-1.43-.11-2.03-.33s-1.07-.59-1.42-1.09c-.35-.5-.52-1.16-.52-1.96s.19-1.41,.58-1.9c.39-.49,.93-.85,1.61-1.08,.68-.23,1.46-.34,2.34-.34,.26,0,.54,.02,.84,.05,.29,.03,.55,.08,.78,.12s.38,.09,.45,.13v-.67c0-.5-.06-.98-.18-1.44s-.36-.84-.73-1.13c-.37-.29-.93-.44-1.68-.44-.79,0-1.39,.05-1.78,.17-.39,.11-.67,.2-.86,.27l-.19-1.19c.24-.11,.61-.22,1.11-.31,.5-.1,1.09-.14,1.78-.14,.96,0,1.72,.17,2.29,.52s.97,.82,1.22,1.42c.25,.6,.38,1.28,.38,2.05v6.81c-.26,.07-.77,.17-1.51,.29-.75,.12-1.57,.19-2.48,.19Zm.23-1.21c.53,0,.99-.02,1.39-.05,.4-.04,.73-.08,1.01-.14v-3.8c-.14-.07-.38-.14-.73-.22-.35-.08-.81-.12-1.38-.12-.45,0-.91,.05-1.39,.16-.48,.1-.88,.31-1.21,.62-.33,.31-.49,.77-.49,1.38,0,.81,.25,1.37,.76,1.69,.51,.32,1.19,.48,2.04,.48Z" />
        <path class="cls-1"
              d="M49.76,29.16v-10.42c.4-.11,.95-.24,1.64-.38s1.52-.21,2.5-.21c1.1,0,1.96,.21,2.58,.63,.62,.42,1.06,1,1.32,1.74s.39,1.61,.39,2.6v6.04h-1.36v-5.6c0-1.02-.09-1.83-.28-2.44-.19-.61-.51-1.05-.97-1.33-.46-.27-1.09-.41-1.88-.41-.64,0-1.19,.04-1.66,.1-.47,.07-.77,.13-.91,.19v9.48h-1.36Z" />
        <path class="cls-1"
              d="M65.81,29.41c-.96,0-1.81-.23-2.55-.7-.74-.46-1.32-1.12-1.74-1.97s-.64-1.84-.64-2.97,.21-2.13,.64-2.98,1.01-1.5,1.74-1.97c.74-.47,1.59-.71,2.55-.71s1.81,.24,2.56,.71c.74,.47,1.33,1.13,1.74,1.97s.63,1.83,.63,2.98-.21,2.12-.63,2.97-1,1.51-1.74,1.97c-.75,.47-1.6,.7-2.56,.7Zm0-1.23c.71,0,1.33-.18,1.85-.54,.52-.36,.93-.88,1.21-1.54,.29-.66,.43-1.44,.43-2.33s-.14-1.69-.43-2.35c-.29-.66-.69-1.17-1.21-1.54-.52-.36-1.14-.54-1.85-.54s-1.33,.18-1.85,.54c-.52,.36-.93,.87-1.21,1.54-.29,.66-.43,1.45-.43,2.35s.14,1.67,.43,2.33c.29,.66,.69,1.17,1.21,1.54,.52,.36,1.14,.54,1.85,.54Z" />
        <path class="cls-1"
              d="M73.56,29.16v-10.42c.4-.11,.95-.24,1.64-.38s1.52-.21,2.5-.21c1.1,0,1.96,.21,2.58,.63,.62,.42,1.06,1,1.32,1.74s.39,1.61,.39,2.6v6.04h-1.36v-5.6c0-1.02-.09-1.83-.28-2.44-.19-.61-.51-1.05-.97-1.33-.46-.27-1.09-.41-1.88-.41-.64,0-1.19,.04-1.66,.1-.47,.07-.77,.13-.91,.19v9.48h-1.36Z" />
        <path class="cls-1"
              d="M85.91,16.15c-.28,0-.52-.1-.71-.29-.2-.2-.29-.45-.29-.75,0-.32,.1-.58,.29-.76,.19-.19,.43-.28,.71-.28s.51,.09,.71,.28,.29,.44,.29,.76-.1,.56-.29,.75c-.2,.19-.43,.29-.71,.29Zm-.67,13.01v-10.8h1.36v10.8h-1.36Z" />
        <path class="cls-1"
              d="M94.48,29.39c-1.11,0-2.05-.23-2.81-.7s-1.33-1.12-1.72-1.96c-.39-.84-.58-1.82-.58-2.93s.2-2.12,.61-2.98c.4-.86,.98-1.52,1.72-2,.75-.47,1.63-.71,2.64-.71,.57,0,1.12,.05,1.64,.14,.52,.1,.92,.22,1.18,.38l-.36,1.17c-.28-.14-.59-.25-.95-.33s-.82-.12-1.39-.12c-1.18,0-2.09,.39-2.72,1.17-.63,.78-.94,1.87-.94,3.28,0,.85,.13,1.6,.39,2.27s.67,1.18,1.24,1.54c.57,.37,1.33,.55,2.28,.55,.57,0,1.06-.07,1.46-.2,.4-.13,.7-.25,.88-.34l.29,1.17c-.25,.14-.65,.28-1.19,.41-.54,.13-1.1,.2-1.67,.2Z" />
        <path class="cls-1"
              d="M102.91,29.39c-.75,0-1.43-.11-2.03-.33s-1.07-.59-1.42-1.09c-.35-.5-.52-1.16-.52-1.96s.19-1.41,.58-1.9c.39-.49,.93-.85,1.61-1.08,.68-.23,1.46-.34,2.34-.34,.26,0,.54,.02,.84,.05,.29,.03,.55,.08,.78,.12s.38,.09,.45,.13v-.67c0-.5-.06-.98-.18-1.44s-.36-.84-.73-1.13c-.37-.29-.93-.44-1.68-.44-.79,0-1.39,.05-1.78,.17-.39,.11-.67,.2-.86,.27l-.19-1.19c.24-.11,.61-.22,1.11-.31,.5-.1,1.09-.14,1.78-.14,.96,0,1.72,.17,2.29,.52s.97,.82,1.22,1.42c.25,.6,.38,1.28,.38,2.05v6.81c-.26,.07-.77,.17-1.51,.29-.75,.12-1.57,.19-2.48,.19Zm.23-1.21c.53,0,.99-.02,1.39-.05,.4-.04,.73-.08,1.01-.14v-3.8c-.14-.07-.38-.14-.73-.22-.35-.08-.81-.12-1.38-.12-.45,0-.91,.05-1.39,.16-.48,.1-.88,.31-1.21,.62-.33,.31-.49,.77-.49,1.38,0,.81,.25,1.37,.76,1.69,.51,.32,1.19,.48,2.04,.48Z" />
        <path class="cls-1"
              d="M112.93,29.35c-.6-.03-1.1-.13-1.51-.3-.41-.17-.72-.46-.93-.86s-.31-.94-.31-1.62V13.2l1.36-.25v13.58c0,.45,.05,.78,.17,1,.11,.22,.29,.38,.52,.46,.24,.08,.54,.16,.9,.23l-.19,1.13Z" />
        <path class="cls-1" d="M119.78,29.16V14.68h1.42v13.24h6.81v1.23h-8.23Z" />
        <path class="cls-1"
              d="M129.72,29.16c.43-.85,.91-1.7,1.44-2.55,.53-.85,1.09-1.7,1.68-2.56,.59-.86,1.18-1.7,1.77-2.54l-4.66-6.83h1.63l3.91,5.83,3.91-5.83h1.59l-4.66,6.79c.6,.85,1.19,1.7,1.79,2.56,.59,.86,1.16,1.71,1.69,2.57,.54,.86,1.01,1.71,1.43,2.56h-1.54c-.26-.56-.64-1.22-1.12-1.98s-1-1.56-1.55-2.38c-.55-.82-1.08-1.58-1.58-2.28-.38,.52-.77,1.08-1.17,1.68-.4,.61-.8,1.21-1.2,1.81-.4,.6-.76,1.17-1.08,1.71s-.58,1.02-.79,1.44h-1.48Z" />
        <path class="cls-1"
              d="M147.24,29.28c-.58,0-1.2-.03-1.84-.09-.64-.06-1.21-.16-1.69-.28V14.96c.49-.14,1.05-.24,1.69-.3,.64-.06,1.25-.1,1.84-.1,1.56,0,2.94,.27,4.14,.82,1.2,.54,2.13,1.36,2.81,2.44s1.01,2.45,1.01,4.09-.34,3.01-1.01,4.11c-.68,1.09-1.61,1.91-2.81,2.45s-2.58,.81-4.14,.81Zm.17-1.23c2.08,0,3.64-.55,4.7-1.65,1.06-1.1,1.59-2.6,1.59-4.49s-.53-3.39-1.59-4.48c-1.06-1.09-2.62-1.64-4.7-1.64-.75,0-1.3,.02-1.64,.06-.34,.04-.55,.07-.64,.08v11.97c.08,.01,.29,.04,.64,.08,.34,.04,.89,.06,1.64,.06Z" />
    </g>
    <rect class="cls-2" x="0" width="21" height="32" />
    <rect class="cls-3" x="2.5" y="14" width="16" height="16" />
    <g>
        <path class="cls-1"
              d="M10.5,29.43c-.1,0-.2-.03-.29-.08l-5.83-3.43c-.18-.11-.29-.3-.29-.51v-6.87c0-.21,.11-.4,.29-.51l5.83-3.43c.18-.11,.4-.11,.58,0l5.84,3.43c.18,.11,.29,.3,.29,.51v6.87c0,.21-.11,.4-.29,.51l-5.84,3.43c-.09,.05-.19,.08-.29,.08Zm-5.26-4.36l5.26,3.1,5.26-3.1v-6.19l-5.26-3.1-5.26,3.1v6.19Zm11.09,.34h0Z" />
        <ellipse class="cls-1" cx="10.5" cy="21.97" rx="2.24" ry="2.29" />
    </g>
</svg>
