<?xml version="1.0" encoding="UTF-8"?>
<svg id="Layer_1" xmlns="http://www.w3.org/2000/svg" viewBox="0 0 157 34">
    <defs>
        <style>.cls-1{fill:#fff;}.cls-2{fill:#e95420;}.cls-3{fill:none;}</style>
    </defs>
    <rect class="cls-2" x="0" width="21" height="32" />
    <rect class="cls-3" x="2.5" y="14" width="16" height="16" />
    <g>
        <path class="cls-1"
              d="M10.5,29.43c-.1,0-.2-.03-.29-.08l-5.83-3.43c-.18-.11-.29-.3-.29-.51v-6.87c0-.21,.11-.4,.29-.51l5.83-3.43c.18-.11,.4-.11,.58,0l5.84,3.43c.18,.11,.29,.3,.29,.51v6.87c0,.21-.11,.4-.29,.51l-5.84,3.43c-.09,.05-.19,.08-.29,.08Zm-5.26-4.36l5.26,3.1,5.26-3.1v-6.19l-5.26-3.1-5.26,3.1v6.19Zm11.09,.34h0Z" />
        <ellipse class="cls-1" cx="10.5" cy="21.97" rx="2.24" ry="2.29" />
    </g>
</svg>
